<?xml version="1.0" encoding="utf-8"?>
<!-- Generator: Adobe Illustrator 27.9.0, SVG Export Plug-In . SVG Version: 6.00 Build 0)  -->
<svg version="1.1" id="Layer_1" xmlns="http://www.w3.org/2000/svg" xmlns:xlink="http://www.w3.org/1999/xlink" x="0px" y="0px"
	 viewBox="0 0 199.82 233.5" style="enable-background:new 0 0 199.82 233.5;" xml:space="preserve">
<style type="text/css">
	.st0{clip-path:url(#SVGID_00000070081082410765869200000012232596176625052819_);}
	.st1{fill:#F66B0E;}
</style>
<g>
	<defs>
		<rect id="SVGID_1_" width="200" height="233.5"/>
	</defs>
	<clipPath id="SVGID_00000059310209239602923710000012875570174165033646_">
		<use xlink:href="#SVGID_1_"  style="overflow:visible;"/>
	</clipPath>
	<g style="clip-path:url(#SVGID_00000059310209239602923710000012875570174165033646_);">
		<path class="st1" d="M127.03,216.14c1.37-0.17,1.89,0,2.4-0.17c31.41-18.93,52.7-45.78,60.77-81.93
			c2.06-9.12,1.72-18.59-0.69-27.88c-4.98-19.96-21.63-33.73-42.06-34.94c-10.64-0.69-20.94,0.52-30.21,6.37
			c-0.69,4.99-1.2,9.98-2.23,14.63c-1.72,7.57-5.66,13.77-12.7,17.56c-5.15,2.93-10.3,2.93-13.05,0.17
			c-3.61-3.61-3.6-8.43-1.37-12.39c3.09-5.51,6.87-10.67,10.81-15.49c2.57-3.1,6.01-5.68,9.1-8.26
			c-2.92-19.45-21.29-27.71-43.26-19.62c-0.69,2.75-1.37,5.68-2.23,8.43c-3.43,10.15-9.78,17.9-20.08,21.51
			c-3.95,1.38-8.24,1.89-11.67-1.72c-2.58-2.75-2.58-7.57,0.17-12.39c4.46-7.57,11.16-12.91,18.37-17.56
			c2.57-1.55,5.15-3.1,7.72-4.48C53.39,17.86,26.44-3.48,0,8.56C0.17,6.33,0,4.43,0.69,3.4c0.86-1.2,2.75-1.89,4.29-2.24
			c14.59-2.75,28.15-1.03,39.31,9.64c8.41,7.92,14.08,17.56,17.85,28.57c0.52,1.55,1.03,3.1,1.72,4.65c0,0.17,0.34,0.34,1.03,0.86
			c1.54-0.17,3.43-0.17,5.32-0.52c23-3.61,35.02,2.58,45.66,24.1c2.06-0.69,4.46-1.38,6.7-2.24c13.22-4.48,26.44-4.82,39.83-0.34
			c21.8,7.23,35.88,25.99,37.42,49.74c0.86,12.91-1.37,25.3-6.01,37.35c-11.33,29.09-29.87,51.98-57.68,66.95
			c-1.37,0.86-2.92,1.55-4.29,2.41c-0.17,0.17-0.34,0.52-0.86,1.55c5.84,1.38,11.33,0.86,16.82,0.52
			c5.32-0.17,10.82-0.69,16.65-1.03c-0.51,4.47-2.92,6.2-5.84,7.23c-3.43,1.03-6.87,2.41-10.3,2.58c-9.27,0.34-18.71,0.52-28.15,0
			c-7.38-0.52-9.44-4.48-6.18-10.5c7.04-12.74,14.25-25.47,21.46-38.21c1.2-2.07,2.75-3.79,4.63-6.2c3.26,3.79,1.89,6.54,0.69,9.12
			C135.96,196.69,131.67,205.98,127.03,216.14z M35.71,77.24c11.84-1.55,19.23-9.12,19.74-19.79C47.55,62.61,40,67.26,35.71,77.24z
			 M93.73,103.92c10.13-2.41,14.94-9.29,13.9-19.79C101.11,89.63,95.45,94.8,93.73,103.92z"/>
	</g>
</g>
</svg>
